<svg xmlns="http://www.w3.org/2000/svg" xmlns:xlink="http://www.w3.org/1999/xlink" width="128" zoomAndPan="magnify" viewBox="0 0 96 95.999999" height="128" preserveAspectRatio="xMidYMid meet" version="1.0"><defs><g/><clipPath id="884e7813e7"><path d="M 96 21.75 L 96 74.25 C 96 86.261719 86.261719 96 74.25 96 L 21.75 96 C 9.738281 96 0 86.261719 0 74.25 L 0 21.75 C 0 9.738281 9.738281 0 21.75 0 L 74.25 0 C 80.019531 0 85.550781 2.292969 89.628906 6.371094 C 93.707031 10.449219 96 15.980469 96 21.75 Z M 96 21.75 " clip-rule="nonzero"/></clipPath><clipPath id="6f181213ec"><path d="M 0 0 L 96 0 L 96 96 L 0 96 Z M 0 0 " clip-rule="nonzero"/></clipPath><clipPath id="6234ca1a07"><path d="M 96 21.75 L 96 74.25 C 96 86.261719 86.261719 96 74.25 96 L 21.75 96 C 9.738281 96 0 86.261719 0 74.25 L 0 21.75 C 0 9.738281 9.738281 0 21.75 0 L 74.25 0 C 80.019531 0 85.550781 2.292969 89.628906 6.371094 C 93.707031 10.449219 96 15.980469 96 21.75 Z M 96 21.75 " clip-rule="nonzero"/></clipPath><clipPath id="d39f74d716"><rect x="0" width="96" y="0" height="96"/></clipPath><clipPath id="362c53f6de"><path d="M 30.5625 9.601562 L 65.0625 9.601562 L 65.0625 56.851562 L 30.5625 56.851562 Z M 30.5625 9.601562 " clip-rule="nonzero"/></clipPath></defs><rect x="-9.6" width="115.2" fill="#ffffff" y="-9.6" height="115.199999" fill-opacity="1"/><rect x="-9.6" width="115.2" fill="#ffffff" y="-9.6" height="115.199999" fill-opacity="1"/><g clip-path="url(#884e7813e7)"><g transform="matrix(1, 0, 0, 1, 0, -0.000000000000008101)"><g clip-path="url(#d39f74d716)"><g clip-path="url(#6f181213ec)"><g clip-path="url(#6234ca1a07)"><rect x="-21.12" width="138.24" fill="#5e17eb" height="138.239999" y="-21.12" fill-opacity="1"/></g></g></g></g></g><g clip-path="url(#362c53f6de)"><path fill="#ffffff" d="M 43.191406 26.867188 C 40.476562 28.921875 38.496094 31.480469 37.242188 34.539062 C 35.929688 37.75 35.410156 41.535156 35.683594 45.898438 C 35.714844 46.410156 35.625 46.894531 35.425781 47.339844 C 35.414062 47.367188 35.402344 47.390625 35.386719 47.417969 C 35.1875 47.828125 34.894531 48.1875 34.515625 48.484375 C 34.125 48.789062 33.800781 49.160156 33.539062 49.59375 C 33.265625 50.042969 33.066406 50.554688 32.9375 51.128906 C 32.894531 51.320312 32.933594 51.511719 33.027344 51.664062 C 33.121094 51.8125 33.273438 51.929688 33.464844 51.972656 C 33.859375 52.066406 34.222656 52.109375 34.558594 52.101562 C 34.878906 52.09375 35.183594 52.039062 35.472656 51.941406 C 35.957031 51.78125 36.453125 51.738281 36.929688 51.816406 C 37.414062 51.894531 37.867188 52.089844 38.277344 52.398438 C 39.125 53.039062 40.472656 53.585938 42.152344 53.980469 C 43.84375 54.378906 45.847656 54.609375 48 54.609375 C 50.152344 54.609375 52.15625 54.378906 53.847656 53.980469 C 55.527344 53.585938 56.875 53.039062 57.722656 52.398438 C 58.128906 52.089844 58.585938 51.894531 59.066406 51.816406 C 59.546875 51.738281 60.039062 51.78125 60.527344 51.941406 C 60.816406 52.039062 61.121094 52.09375 61.441406 52.101562 C 61.777344 52.109375 62.140625 52.066406 62.535156 51.972656 C 62.722656 51.929688 62.875 51.8125 62.96875 51.664062 C 63.066406 51.511719 63.105469 51.320312 63.0625 51.128906 C 62.933594 50.554688 62.730469 50.042969 62.460938 49.59375 C 62.199219 49.160156 61.871094 48.789062 61.480469 48.484375 C 61.078125 48.171875 60.773438 47.78125 60.574219 47.339844 C 60.371094 46.894531 60.285156 46.410156 60.316406 45.898438 C 60.589844 41.535156 60.070312 37.75 58.757812 34.539062 C 57.503906 31.480469 55.519531 28.921875 52.808594 26.867188 L 50.679688 26.867188 C 50.578125 27.160156 50.496094 27.46875 50.4375 27.789062 C 50.339844 28.347656 50.308594 28.957031 50.363281 29.589844 C 50.414062 30.234375 49.9375 30.800781 49.292969 30.851562 C 48.648438 30.90625 48.082031 30.425781 48.03125 29.78125 C 47.960938 28.960938 48.003906 28.152344 48.140625 27.378906 C 48.171875 27.207031 48.210938 27.035156 48.25 26.867188 L 46.902344 26.867188 C 46.628906 27.152344 46.34375 27.597656 46.082031 28.113281 C 45.613281 29.027344 45.25 30.101562 45.078125 30.921875 C 44.945312 31.554688 44.328125 31.960938 43.695312 31.828125 C 43.066406 31.695312 42.660156 31.078125 42.789062 30.445312 C 42.996094 29.457031 43.4375 28.160156 44.003906 27.050781 C 44.035156 26.988281 44.066406 26.929688 44.101562 26.867188 Z M 47.113281 50.640625 L 47.113281 48.328125 C 45.429688 47.902344 44.046875 46.554688 44 44.707031 L 43.972656 43.566406 L 46.25 43.511719 L 46.277344 44.652344 C 46.300781 45.644531 47.359375 46.191406 48.25 46.191406 C 49.109375 46.191406 50.222656 45.660156 50.222656 44.679688 C 50.222656 42.011719 44 44.386719 44 39.375 C 44 37.507812 45.417969 36.152344 47.113281 35.726562 L 47.113281 33.414062 L 49.390625 33.414062 L 49.390625 35.726562 C 51.074219 36.152344 52.453125 37.5 52.5 39.347656 L 52.527344 40.488281 L 50.25 40.542969 L 50.222656 39.402344 C 50.199219 38.410156 49.140625 37.863281 48.25 37.863281 C 47.394531 37.863281 46.277344 38.394531 46.277344 39.375 C 46.277344 42.042969 52.5 39.667969 52.5 44.679688 C 52.5 46.546875 51.082031 47.902344 49.390625 48.328125 L 49.390625 50.636719 L 47.113281 50.636719 Z M 48.730469 21.273438 C 48.738281 21.191406 48.746094 21.105469 48.753906 21.019531 C 48.816406 20.292969 48.851562 19.558594 48.863281 19.054688 C 48.875 18.410156 49.40625 17.898438 50.050781 17.910156 C 50.695312 17.925781 51.207031 18.457031 51.195312 19.101562 C 51.179688 19.710938 51.144531 20.535156 51.085938 21.21875 L 51.082031 21.273438 L 53.304688 21.273438 C 53.789062 20.648438 54.265625 19.898438 54.703125 19.003906 C 55.023438 18.355469 55.324219 17.625 55.597656 16.808594 C 53.625 16.378906 53.425781 15.433594 53.179688 14.253906 C 53.105469 13.914062 53.027344 13.53125 52.78125 13.210938 C 52.675781 13.074219 52.519531 12.976562 52.335938 12.910156 C 52.085938 12.820312 51.800781 12.792969 51.527344 12.828125 C 51.058594 12.882812 50.648438 13.144531 50.269531 13.390625 C 49.488281 13.894531 48.777344 14.351562 47.566406 14.117188 C 46.675781 13.945312 46.144531 13.414062 45.589844 12.855469 C 45.289062 12.554688 44.976562 12.238281 44.671875 12.121094 C 43.734375 11.765625 43.296875 12.46875 42.855469 13.179688 C 42.101562 14.394531 41.347656 15.617188 39.765625 15.605469 C 40.105469 16.492188 40.5 17.324219 40.945312 18.101562 C 41.625 19.289062 42.421875 20.347656 43.335938 21.273438 L 44.671875 21.273438 C 44.34375 19.824219 44.164062 18.375 44.601562 15.941406 C 44.714844 15.308594 45.320312 14.886719 45.957031 15 C 46.589844 15.113281 47.011719 15.71875 46.898438 16.355469 C 46.492188 18.605469 46.730469 19.875 47.074219 21.273438 Z M 55.753906 26.285156 C 58.03125 28.355469 59.75 30.8125 60.914062 33.660156 C 62.367188 37.207031 62.945312 41.335938 62.648438 46.042969 C 62.640625 46.167969 62.660156 46.28125 62.703125 46.378906 L 62.703125 46.382812 C 62.746094 46.480469 62.820312 46.570312 62.917969 46.644531 C 63.542969 47.132812 64.058594 47.714844 64.464844 48.382812 C 64.859375 49.039062 65.152344 49.785156 65.339844 50.625 C 65.519531 51.433594 65.355469 52.246094 64.945312 52.898438 C 64.535156 53.558594 63.875 54.0625 63.066406 54.25 C 62.496094 54.386719 61.933594 54.445312 61.386719 54.433594 C 60.828125 54.417969 60.292969 54.328125 59.785156 54.15625 C 59.664062 54.117188 59.546875 54.105469 59.441406 54.121094 C 59.339844 54.140625 59.234375 54.1875 59.132812 54.265625 C 58.023438 55.101562 56.371094 55.792969 54.378906 56.261719 C 52.511719 56.699219 50.328125 56.949219 48 56.949219 C 45.671875 56.949219 43.488281 56.699219 41.621094 56.261719 C 39.628906 55.792969 37.972656 55.101562 36.867188 54.265625 C 36.765625 54.1875 36.660156 54.140625 36.554688 54.121094 C 36.449219 54.105469 36.335938 54.117188 36.214844 54.15625 C 35.707031 54.328125 35.171875 54.421875 34.613281 54.433594 C 34.0625 54.445312 33.503906 54.386719 32.933594 54.25 C 32.125 54.0625 31.464844 53.558594 31.054688 52.898438 C 30.644531 52.246094 30.480469 51.433594 30.660156 50.625 C 30.847656 49.785156 31.140625 49.039062 31.535156 48.382812 C 31.941406 47.714844 32.457031 47.132812 33.082031 46.644531 C 33.167969 46.578125 33.234375 46.5 33.28125 46.417969 L 33.296875 46.378906 C 33.339844 46.28125 33.359375 46.167969 33.351562 46.042969 C 33.054688 41.335938 33.632812 37.207031 35.085938 33.660156 C 36.25 30.8125 37.96875 28.355469 40.246094 26.285156 C 40.148438 26.207031 40.054688 26.121094 39.96875 26.027344 C 39.496094 25.527344 39.203125 24.847656 39.203125 24.097656 L 39.203125 24.042969 C 39.203125 23.296875 39.496094 22.613281 39.96875 22.113281 C 40.136719 21.933594 40.332031 21.777344 40.542969 21.648438 C 39.945312 20.910156 39.402344 20.113281 38.914062 19.265625 C 38.054688 17.757812 37.367188 16.074219 36.847656 14.203125 C 36.675781 13.582031 37.042969 12.9375 37.664062 12.765625 C 37.96875 12.683594 38.277344 12.726562 38.535156 12.871094 C 39.894531 13.527344 40.382812 12.738281 40.871094 11.957031 C 41.820312 10.421875 42.765625 8.898438 45.496094 9.9375 C 46.273438 10.230469 46.769531 10.730469 47.246094 11.210938 C 47.539062 11.503906 47.820312 11.785156 48.003906 11.824219 C 48.300781 11.878906 48.636719 11.664062 49.007812 11.421875 C 49.605469 11.039062 50.25 10.621094 51.261719 10.503906 C 51.867188 10.429688 52.523438 10.496094 53.121094 10.714844 C 53.707031 10.925781 54.238281 11.277344 54.628906 11.785156 C 55.207031 12.535156 55.34375 13.191406 55.464844 13.777344 C 55.558594 14.214844 55.628906 14.550781 57.195312 14.667969 C 57.835938 14.71875 58.320312 15.277344 58.273438 15.921875 C 58.265625 16.019531 58.246094 16.109375 58.21875 16.195312 C 57.824219 17.664062 57.335938 18.933594 56.796875 20.03125 C 56.464844 20.707031 56.113281 21.3125 55.753906 21.855469 C 55.851562 21.9375 55.945312 22.023438 56.03125 22.113281 C 56.503906 22.613281 56.796875 23.296875 56.796875 24.042969 L 56.796875 24.097656 C 56.796875 24.847656 56.503906 25.527344 56.03125 26.027344 C 55.945312 26.121094 55.851562 26.207031 55.753906 26.285156 Z M 54.117188 23.617188 L 41.882812 23.617188 C 41.800781 23.617188 41.726562 23.652344 41.667969 23.714844 C 41.59375 23.796875 41.546875 23.910156 41.546875 24.042969 L 41.546875 24.097656 C 41.546875 24.230469 41.59375 24.347656 41.667969 24.425781 C 41.726562 24.488281 41.800781 24.527344 41.882812 24.527344 L 54.117188 24.527344 C 54.195312 24.527344 54.273438 24.488281 54.332031 24.425781 C 54.40625 24.347656 54.453125 24.230469 54.453125 24.097656 L 54.453125 24.042969 C 54.453125 23.910156 54.40625 23.796875 54.332031 23.714844 C 54.273438 23.652344 54.195312 23.617188 54.117188 23.617188 Z M 54.117188 23.617188 " fill-opacity="1" fill-rule="evenodd"/></g><g fill="#ffffff" fill-opacity="1"><g transform="translate(31.090139, 80.7165)"><g><path d="M 11.578125 -17.03125 L 18.328125 -3.078125 C 18.609375 -2.503906 18.75 -2.078125 18.75 -1.796875 C 18.75 -1.203125 18.265625 -0.660156 17.296875 -0.171875 C 16.734375 0.109375 16.285156 0.25 15.953125 0.25 C 15.628906 0.25 15.363281 0.171875 15.15625 0.015625 C 14.945312 -0.128906 14.796875 -0.285156 14.703125 -0.453125 C 14.617188 -0.617188 14.492188 -0.867188 14.328125 -1.203125 L 13.03125 -3.90625 L 6.09375 -3.90625 L 4.796875 -1.203125 C 4.628906 -0.867188 4.5 -0.625 4.40625 -0.46875 C 4.320312 -0.320312 4.175781 -0.171875 3.96875 -0.015625 C 3.757812 0.140625 3.488281 0.21875 3.15625 0.21875 C 2.832031 0.21875 2.390625 0.078125 1.828125 -0.203125 C 0.859375 -0.671875 0.375 -1.203125 0.375 -1.796875 C 0.375 -2.078125 0.515625 -2.503906 0.796875 -3.078125 L 7.546875 -17.046875 C 7.734375 -17.429688 8.015625 -17.738281 8.390625 -17.96875 C 8.765625 -18.207031 9.160156 -18.328125 9.578125 -18.328125 C 10.472656 -18.328125 11.140625 -17.894531 11.578125 -17.03125 Z M 9.546875 -11.03125 L 7.90625 -7.59375 L 11.21875 -7.59375 Z M 9.546875 -11.03125 "/></g></g></g><g fill="#ffffff" fill-opacity="1"><g transform="translate(50.212105, 80.7165)"><g><path d="M 5.421875 -3.703125 L 12.21875 -3.703125 C 12.769531 -3.703125 13.171875 -3.640625 13.421875 -3.515625 C 13.671875 -3.390625 13.835938 -3.191406 13.921875 -2.921875 C 14.003906 -2.660156 14.046875 -2.304688 14.046875 -1.859375 C 14.046875 -1.421875 14.003906 -1.066406 13.921875 -0.796875 C 13.835938 -0.535156 13.695312 -0.351562 13.5 -0.25 C 13.1875 -0.0820312 12.753906 0 12.203125 0 L 3.203125 0 C 2.035156 0 1.351562 -0.316406 1.15625 -0.953125 C 1.050781 -1.210938 1 -1.632812 1 -2.21875 L 1 -16.125 C 1 -16.507812 1.007812 -16.796875 1.03125 -16.984375 C 1.0625 -17.179688 1.144531 -17.40625 1.28125 -17.65625 C 1.507812 -18.101562 2.15625 -18.328125 3.21875 -18.328125 C 4.382812 -18.328125 5.078125 -18.019531 5.296875 -17.40625 C 5.378906 -17.113281 5.421875 -16.675781 5.421875 -16.09375 Z M 5.421875 -3.703125 "/></g></g></g></svg>