<svg xmlns="http://www.w3.org/2000/svg" xmlns:xlink="http://www.w3.org/1999/xlink" width="128" zoomAndPan="magnify" viewBox="0 0 96 95.999999" height="128" preserveAspectRatio="xMidYMid meet" version="1.0"><defs><g/><clipPath id="3d1c0eb17d"><path d="M 0 0 L 96 0 L 96 96 L 0 96 Z M 0 0 " clip-rule="nonzero"/></clipPath><clipPath id="09198522b5"><rect x="0" width="96" y="0" height="96"/></clipPath><clipPath id="85006bd5d0"><path d="M 32.507812 9.601562 L 63.257812 9.601562 L 63.257812 51.601562 L 32.507812 51.601562 Z M 32.507812 9.601562 " clip-rule="nonzero"/></clipPath></defs><rect x="-9.6" width="115.2" fill="#ffffff" y="-9.6" height="115.199999" fill-opacity="1"/><rect x="-9.6" width="115.2" fill="#ffffff" y="-9.6" height="115.199999" fill-opacity="1"/><g transform="matrix(1, 0, 0, 1, 0, -0.000000000000008101)"><g clip-path="url(#09198522b5)"><g clip-path="url(#3d1c0eb17d)"><rect x="-21.12" width="138.24" fill="#5e17eb" height="138.239999" y="-21.12" fill-opacity="1"/></g></g></g><g clip-path="url(#85006bd5d0)"><path fill="#ffffff" d="M 43.726562 24.945312 C 41.316406 26.769531 39.550781 29.042969 38.441406 31.761719 C 37.273438 34.613281 36.808594 37.980469 37.054688 41.855469 C 37.082031 42.308594 37.003906 42.742188 36.828125 43.136719 C 36.816406 43.160156 36.804688 43.183594 36.792969 43.207031 C 36.613281 43.570312 36.355469 43.890625 36.019531 44.15625 C 35.671875 44.425781 35.382812 44.753906 35.148438 45.140625 C 34.90625 45.539062 34.730469 45.992188 34.613281 46.503906 C 34.578125 46.675781 34.609375 46.84375 34.695312 46.980469 C 34.777344 47.113281 34.914062 47.214844 35.082031 47.253906 C 35.433594 47.335938 35.757812 47.375 36.054688 47.367188 C 36.339844 47.359375 36.609375 47.3125 36.867188 47.226562 C 37.296875 47.082031 37.738281 47.046875 38.164062 47.117188 C 38.589844 47.183594 38.996094 47.359375 39.359375 47.632812 C 40.113281 48.203125 41.308594 48.6875 42.804688 49.039062 C 44.304688 49.394531 46.085938 49.597656 48 49.597656 C 49.914062 49.597656 51.691406 49.394531 53.195312 49.039062 C 54.6875 48.6875 55.886719 48.203125 56.640625 47.632812 C 57 47.359375 57.40625 47.183594 57.835938 47.117188 C 58.261719 47.046875 58.699219 47.082031 59.128906 47.226562 C 59.386719 47.3125 59.660156 47.359375 59.945312 47.367188 C 60.242188 47.375 60.566406 47.335938 60.914062 47.253906 C 61.082031 47.214844 61.21875 47.113281 61.300781 46.980469 C 61.386719 46.84375 61.421875 46.675781 61.382812 46.503906 C 61.269531 45.992188 61.089844 45.539062 60.847656 45.136719 C 60.617188 44.753906 60.328125 44.425781 59.980469 44.15625 C 59.621094 43.875 59.351562 43.53125 59.171875 43.136719 C 58.996094 42.742188 58.914062 42.308594 58.945312 41.855469 C 59.1875 37.980469 58.726562 34.613281 57.558594 31.761719 C 56.445312 29.042969 54.683594 26.769531 52.269531 24.945312 L 50.382812 24.945312 C 50.289062 25.203125 50.21875 25.476562 50.167969 25.765625 C 50.078125 26.261719 50.050781 26.800781 50.097656 27.363281 C 50.144531 27.9375 49.71875 28.4375 49.148438 28.484375 C 48.574219 28.535156 48.074219 28.109375 48.023438 27.535156 C 47.964844 26.804688 48 26.085938 48.125 25.398438 C 48.152344 25.246094 48.1875 25.09375 48.222656 24.945312 L 47.023438 24.945312 C 46.78125 25.195312 46.527344 25.59375 46.292969 26.050781 C 45.878906 26.863281 45.554688 27.816406 45.402344 28.546875 C 45.285156 29.109375 44.738281 29.46875 44.175781 29.351562 C 43.613281 29.234375 43.253906 28.6875 43.371094 28.125 C 43.554688 27.246094 43.945312 26.09375 44.449219 25.105469 C 44.476562 25.054688 44.503906 25 44.535156 24.945312 Z M 47.210938 46.070312 L 47.210938 44.015625 C 45.714844 43.636719 44.484375 42.4375 44.445312 40.796875 L 44.421875 39.785156 L 46.445312 39.738281 L 46.46875 40.75 C 46.488281 41.628906 47.429688 42.117188 48.222656 42.117188 C 48.984375 42.117188 49.976562 41.644531 49.976562 40.773438 C 49.976562 38.402344 44.445312 40.511719 44.445312 36.058594 C 44.445312 34.398438 45.707031 33.195312 47.210938 32.820312 L 47.210938 30.765625 L 49.234375 30.765625 L 49.234375 32.816406 C 50.730469 33.195312 51.957031 34.394531 51.996094 36.035156 L 52.023438 37.046875 L 50 37.09375 L 49.976562 36.085938 C 49.953125 35.203125 49.015625 34.714844 48.222656 34.714844 C 47.460938 34.714844 46.46875 35.1875 46.46875 36.058594 C 46.46875 38.429688 51.996094 36.320312 51.996094 40.773438 C 51.996094 42.433594 50.738281 43.636719 49.234375 44.015625 L 49.234375 46.070312 Z M 48.648438 19.972656 C 48.65625 19.902344 48.660156 19.824219 48.667969 19.746094 C 48.726562 19.101562 48.753906 18.449219 48.765625 18.003906 C 48.777344 17.429688 49.25 16.976562 49.820312 16.984375 C 50.394531 16.996094 50.847656 17.46875 50.835938 18.042969 C 50.824219 18.585938 50.796875 19.316406 50.742188 19.925781 L 50.738281 19.972656 L 52.710938 19.972656 C 53.140625 19.417969 53.566406 18.75 53.957031 17.957031 C 54.238281 17.378906 54.507812 16.730469 54.75 16.007812 C 52.996094 15.625 52.820312 14.78125 52.601562 13.734375 C 52.539062 13.433594 52.46875 13.09375 52.25 12.808594 C 52.15625 12.6875 52.015625 12.597656 51.851562 12.539062 C 51.632812 12.460938 51.378906 12.4375 51.132812 12.46875 C 50.71875 12.515625 50.355469 12.75 50.015625 12.96875 C 49.324219 13.414062 48.691406 13.824219 47.613281 13.617188 C 46.820312 13.464844 46.351562 12.992188 45.859375 12.496094 C 45.589844 12.226562 45.3125 11.945312 45.042969 11.839844 C 44.207031 11.523438 43.820312 12.152344 43.425781 12.78125 C 42.757812 13.859375 42.085938 14.945312 40.679688 14.933594 C 40.984375 15.722656 41.335938 16.464844 41.730469 17.15625 C 42.335938 18.210938 43.042969 19.152344 43.855469 19.972656 L 45.042969 19.972656 C 44.75 18.683594 44.589844 17.398438 44.980469 15.234375 C 45.082031 14.671875 45.617188 14.296875 46.183594 14.398438 C 46.746094 14.5 47.121094 15.039062 47.019531 15.601562 C 46.660156 17.601562 46.871094 18.730469 47.175781 19.972656 Z M 54.890625 24.429688 C 56.910156 26.265625 58.441406 28.453125 59.476562 30.980469 C 60.765625 34.132812 61.28125 37.800781 61.015625 41.984375 C 61.011719 42.097656 61.027344 42.199219 61.066406 42.285156 L 61.0625 42.285156 L 61.066406 42.289062 C 61.105469 42.371094 61.167969 42.453125 61.257812 42.519531 C 61.8125 42.953125 62.269531 43.46875 62.628906 44.066406 C 62.980469 44.648438 63.238281 45.3125 63.40625 46.058594 C 63.566406 46.777344 63.421875 47.496094 63.058594 48.078125 C 62.691406 48.664062 62.105469 49.109375 61.386719 49.277344 C 60.878906 49.398438 60.382812 49.453125 59.894531 49.441406 C 59.398438 49.429688 58.921875 49.347656 58.472656 49.195312 C 58.363281 49.160156 58.261719 49.148438 58.167969 49.164062 C 58.074219 49.179688 57.980469 49.222656 57.890625 49.289062 C 56.90625 50.035156 55.4375 50.648438 53.667969 51.0625 C 52.007812 51.453125 50.066406 51.675781 48 51.675781 C 45.929688 51.675781 43.988281 51.453125 42.332031 51.0625 C 40.558594 50.648438 39.089844 50.035156 38.105469 49.289062 C 38.015625 49.222656 37.921875 49.179688 37.828125 49.164062 C 37.734375 49.148438 37.632812 49.160156 37.527344 49.195312 C 37.074219 49.347656 36.601562 49.429688 36.101562 49.441406 C 35.617188 49.453125 35.117188 49.398438 34.609375 49.277344 C 33.890625 49.109375 33.304688 48.664062 32.941406 48.078125 C 32.574219 47.496094 32.429688 46.777344 32.589844 46.058594 C 32.757812 45.3125 33.015625 44.648438 33.367188 44.066406 C 33.726562 43.46875 34.1875 42.953125 34.742188 42.519531 C 34.820312 42.460938 34.878906 42.390625 34.917969 42.316406 L 34.933594 42.285156 C 34.972656 42.199219 34.988281 42.097656 34.980469 41.984375 C 34.71875 37.800781 35.230469 34.132812 36.523438 30.980469 C 37.558594 28.453125 39.085938 26.265625 41.109375 24.429688 C 41.019531 24.359375 40.9375 24.28125 40.859375 24.199219 C 40.441406 23.753906 40.183594 23.148438 40.183594 22.484375 L 40.183594 22.4375 C 40.183594 21.773438 40.441406 21.164062 40.859375 20.71875 C 41.011719 20.558594 41.183594 20.421875 41.371094 20.308594 C 40.839844 19.652344 40.359375 18.945312 39.925781 18.1875 C 39.160156 16.851562 38.550781 15.351562 38.089844 13.691406 C 37.9375 13.136719 38.261719 12.566406 38.8125 12.414062 C 39.085938 12.339844 39.359375 12.378906 39.589844 12.503906 C 40.796875 13.089844 41.230469 12.390625 41.664062 11.691406 C 42.507812 10.328125 43.347656 8.976562 45.773438 9.898438 C 46.464844 10.160156 46.90625 10.605469 47.332031 11.03125 C 47.589844 11.292969 47.839844 11.542969 48.003906 11.574219 C 48.265625 11.625 48.566406 11.433594 48.894531 11.21875 C 49.425781 10.878906 50 10.507812 50.898438 10.402344 C 51.4375 10.339844 52.019531 10.398438 52.550781 10.589844 C 53.070312 10.777344 53.542969 11.089844 53.890625 11.542969 C 54.402344 12.207031 54.523438 12.789062 54.632812 13.3125 C 54.714844 13.703125 54.777344 14 56.167969 14.105469 C 56.742188 14.148438 57.171875 14.644531 57.128906 15.21875 C 57.121094 15.304688 57.105469 15.386719 57.082031 15.460938 C 56.730469 16.765625 56.296875 17.894531 55.816406 18.867188 C 55.523438 19.46875 55.210938 20.007812 54.890625 20.492188 C 54.976562 20.5625 55.058594 20.640625 55.136719 20.71875 C 55.554688 21.164062 55.816406 21.773438 55.816406 22.4375 L 55.816406 22.484375 C 55.816406 23.148438 55.554688 23.753906 55.136719 24.199219 C 55.058594 24.28125 54.976562 24.359375 54.890625 24.429688 Z M 53.433594 22.054688 L 42.5625 22.054688 C 42.492188 22.054688 42.421875 22.089844 42.371094 22.144531 C 42.304688 22.214844 42.265625 22.316406 42.265625 22.4375 L 42.265625 22.484375 C 42.265625 22.601562 42.304688 22.703125 42.371094 22.777344 C 42.425781 22.832031 42.492188 22.863281 42.5625 22.863281 L 53.433594 22.863281 C 53.507812 22.863281 53.574219 22.832031 53.625 22.777344 C 53.691406 22.703125 53.734375 22.601562 53.734375 22.484375 L 53.734375 22.4375 C 53.734375 22.316406 53.691406 22.214844 53.625 22.144531 C 53.574219 22.089844 53.507812 22.054688 53.433594 22.054688 Z M 53.433594 22.054688 " fill-opacity="1" fill-rule="evenodd"/></g><g fill="#ffffff" fill-opacity="1"><g transform="translate(35.437795, 69.932554)"><g><path d="M 5.65625 -14.15625 L 8.984375 -14.15625 L 14.859375 0 L 11.0625 0 L 9.953125 -2.78125 L 4.484375 -2.78125 L 3.4375 0 L -0.28125 0 Z M 7.265625 -10.375 L 5.453125 -5.515625 L 9.015625 -5.515625 Z M 7.265625 -10.375 "/></g></g></g><g fill="#ffffff" fill-opacity="1"><g transform="translate(50.01204, 69.932554)"><g><path d="M 10.375 0 L 1.453125 0 L 1.453125 -14.15625 L 4.90625 -14.15625 L 4.90625 -2.984375 L 10.375 -2.984375 Z M 10.375 0 "/></g></g></g><g fill="#ffffff" fill-opacity="1"><g transform="translate(22.237895, 83.97215)"><g><path d="M 2.40625 0 L 1.125 0 L 1.125 -9.203125 L 6.859375 -9.203125 L 6.859375 -8.078125 L 2.40625 -8.078125 L 2.40625 -5.21875 L 6.578125 -5.21875 L 6.578125 -4.109375 L 2.40625 -4.109375 Z M 2.40625 0 "/></g></g></g><g fill="#ffffff" fill-opacity="1"><g transform="translate(29.38568, 83.97215)"><g><path d="M 1.671875 -7.609375 C 1.453125 -7.609375 1.265625 -7.679688 1.109375 -7.828125 C 0.953125 -7.984375 0.875 -8.171875 0.875 -8.390625 C 0.875 -8.597656 0.953125 -8.78125 1.109375 -8.9375 C 1.265625 -9.09375 1.453125 -9.171875 1.671875 -9.171875 C 1.898438 -9.171875 2.09375 -9.09375 2.25 -8.9375 C 2.414062 -8.789062 2.5 -8.609375 2.5 -8.390625 C 2.5 -8.171875 2.414062 -7.984375 2.25 -7.828125 C 2.09375 -7.679688 1.898438 -7.609375 1.671875 -7.609375 Z M 2.28125 0 L 1.0625 0 L 1.0625 -6.15625 L 2.28125 -6.15625 Z M 2.28125 0 "/></g></g></g><g fill="#ffffff" fill-opacity="1"><g transform="translate(32.75165, 83.97215)"><g><path d="M 1.046875 -4.84375 C 1.046875 -5.363281 1.03125 -5.800781 1 -6.15625 L 2.15625 -6.15625 C 2.1875 -5.738281 2.203125 -5.398438 2.203125 -5.140625 L 2.25 -5.140625 C 2.34375 -5.359375 2.492188 -5.554688 2.703125 -5.734375 C 2.910156 -5.921875 3.148438 -6.066406 3.421875 -6.171875 C 3.691406 -6.273438 3.96875 -6.328125 4.25 -6.328125 C 4.757812 -6.328125 5.1875 -6.21875 5.53125 -6 C 5.875 -5.78125 6.128906 -5.476562 6.296875 -5.09375 C 6.460938 -4.71875 6.546875 -4.296875 6.546875 -3.828125 L 6.546875 0 L 5.328125 0 L 5.328125 -3.421875 C 5.328125 -3.992188 5.222656 -4.445312 5.015625 -4.78125 C 4.804688 -5.125 4.441406 -5.296875 3.921875 -5.296875 C 3.597656 -5.296875 3.3125 -5.210938 3.0625 -5.046875 C 2.8125 -4.878906 2.617188 -4.640625 2.484375 -4.328125 C 2.347656 -4.023438 2.28125 -3.675781 2.28125 -3.28125 L 2.28125 0 L 1.046875 0 Z M 1.046875 -4.84375 "/></g></g></g><g fill="#ffffff" fill-opacity="1"><g transform="translate(40.315336, 83.97215)"><g><path d="M 2.828125 0.15625 C 2.472656 0.15625 2.125 0.09375 1.78125 -0.03125 C 1.445312 -0.15625 1.164062 -0.359375 0.9375 -0.640625 C 0.707031 -0.929688 0.59375 -1.296875 0.59375 -1.734375 C 0.59375 -2.316406 0.789062 -2.757812 1.1875 -3.0625 C 1.582031 -3.363281 2.082031 -3.566406 2.6875 -3.671875 C 3.300781 -3.773438 4.019531 -3.828125 4.84375 -3.828125 L 4.890625 -3.828125 L 4.890625 -3.984375 C 4.890625 -4.429688 4.75 -4.769531 4.46875 -5 C 4.195312 -5.226562 3.828125 -5.34375 3.359375 -5.34375 C 3.023438 -5.34375 2.703125 -5.273438 2.390625 -5.140625 C 2.085938 -5.015625 1.828125 -4.84375 1.609375 -4.625 L 0.96875 -5.40625 C 1.269531 -5.695312 1.640625 -5.921875 2.078125 -6.078125 C 2.523438 -6.242188 2.992188 -6.328125 3.484375 -6.328125 C 4.054688 -6.328125 4.535156 -6.222656 4.921875 -6.015625 C 5.304688 -5.804688 5.59375 -5.519531 5.78125 -5.15625 C 5.96875 -4.789062 6.0625 -4.375 6.0625 -3.90625 L 6.0625 -1.21875 C 6.0625 -0.6875 6.09375 -0.28125 6.15625 0 L 5.046875 0 C 4.972656 -0.289062 4.9375 -0.585938 4.9375 -0.890625 L 4.90625 -0.890625 C 4.675781 -0.546875 4.382812 -0.285156 4.03125 -0.109375 C 3.6875 0.0664062 3.285156 0.15625 2.828125 0.15625 Z M 3.109375 -0.8125 C 3.484375 -0.8125 3.800781 -0.890625 4.0625 -1.046875 C 4.332031 -1.203125 4.535156 -1.414062 4.671875 -1.6875 C 4.816406 -1.957031 4.890625 -2.265625 4.890625 -2.609375 L 4.890625 -2.9375 L 4.59375 -2.9375 C 3.800781 -2.9375 3.144531 -2.859375 2.625 -2.703125 C 2.101562 -2.546875 1.84375 -2.234375 1.84375 -1.765625 C 1.84375 -1.429688 1.960938 -1.1875 2.203125 -1.03125 C 2.453125 -0.882812 2.753906 -0.8125 3.109375 -0.8125 Z M 3.109375 -0.8125 "/></g></g></g><g fill="#ffffff" fill-opacity="1"><g transform="translate(47.359174, 83.97215)"><g><path d="M 1.046875 -4.84375 C 1.046875 -5.363281 1.03125 -5.800781 1 -6.15625 L 2.15625 -6.15625 C 2.1875 -5.738281 2.203125 -5.398438 2.203125 -5.140625 L 2.25 -5.140625 C 2.34375 -5.359375 2.492188 -5.554688 2.703125 -5.734375 C 2.910156 -5.921875 3.148438 -6.066406 3.421875 -6.171875 C 3.691406 -6.273438 3.96875 -6.328125 4.25 -6.328125 C 4.757812 -6.328125 5.1875 -6.21875 5.53125 -6 C 5.875 -5.78125 6.128906 -5.476562 6.296875 -5.09375 C 6.460938 -4.71875 6.546875 -4.296875 6.546875 -3.828125 L 6.546875 0 L 5.328125 0 L 5.328125 -3.421875 C 5.328125 -3.992188 5.222656 -4.445312 5.015625 -4.78125 C 4.804688 -5.125 4.441406 -5.296875 3.921875 -5.296875 C 3.597656 -5.296875 3.3125 -5.210938 3.0625 -5.046875 C 2.8125 -4.878906 2.617188 -4.640625 2.484375 -4.328125 C 2.347656 -4.023438 2.28125 -3.675781 2.28125 -3.28125 L 2.28125 0 L 1.046875 0 Z M 1.046875 -4.84375 "/></g></g></g><g fill="#ffffff" fill-opacity="1"><g transform="translate(54.92286, 83.97215)"><g><path d="M 5.59375 0 L 0.421875 0 L 0.421875 -1 L 3.90625 -5.15625 L 0.59375 -5.15625 L 0.59375 -6.15625 L 5.453125 -6.15625 L 5.453125 -5.15625 L 1.9375 -1.03125 L 5.59375 -1.03125 Z M 5.59375 0 "/></g></g></g><g fill="#ffffff" fill-opacity="1"><g transform="translate(60.927026, 83.97215)"><g><path d="M 2.828125 0.15625 C 2.472656 0.15625 2.125 0.09375 1.78125 -0.03125 C 1.445312 -0.15625 1.164062 -0.359375 0.9375 -0.640625 C 0.707031 -0.929688 0.59375 -1.296875 0.59375 -1.734375 C 0.59375 -2.316406 0.789062 -2.757812 1.1875 -3.0625 C 1.582031 -3.363281 2.082031 -3.566406 2.6875 -3.671875 C 3.300781 -3.773438 4.019531 -3.828125 4.84375 -3.828125 L 4.890625 -3.828125 L 4.890625 -3.984375 C 4.890625 -4.429688 4.75 -4.769531 4.46875 -5 C 4.195312 -5.226562 3.828125 -5.34375 3.359375 -5.34375 C 3.023438 -5.34375 2.703125 -5.273438 2.390625 -5.140625 C 2.085938 -5.015625 1.828125 -4.84375 1.609375 -4.625 L 0.96875 -5.40625 C 1.269531 -5.695312 1.640625 -5.921875 2.078125 -6.078125 C 2.523438 -6.242188 2.992188 -6.328125 3.484375 -6.328125 C 4.054688 -6.328125 4.535156 -6.222656 4.921875 -6.015625 C 5.304688 -5.804688 5.59375 -5.519531 5.78125 -5.15625 C 5.96875 -4.789062 6.0625 -4.375 6.0625 -3.90625 L 6.0625 -1.21875 C 6.0625 -0.6875 6.09375 -0.28125 6.15625 0 L 5.046875 0 C 4.972656 -0.289062 4.9375 -0.585938 4.9375 -0.890625 L 4.90625 -0.890625 C 4.675781 -0.546875 4.382812 -0.285156 4.03125 -0.109375 C 3.6875 0.0664062 3.285156 0.15625 2.828125 0.15625 Z M 3.109375 -0.8125 C 3.484375 -0.8125 3.800781 -0.890625 4.0625 -1.046875 C 4.332031 -1.203125 4.535156 -1.414062 4.671875 -1.6875 C 4.816406 -1.957031 4.890625 -2.265625 4.890625 -2.609375 L 4.890625 -2.9375 L 4.59375 -2.9375 C 3.800781 -2.9375 3.144531 -2.859375 2.625 -2.703125 C 2.101562 -2.546875 1.84375 -2.234375 1.84375 -1.765625 C 1.84375 -1.429688 1.960938 -1.1875 2.203125 -1.03125 C 2.453125 -0.882812 2.753906 -0.8125 3.109375 -0.8125 Z M 3.109375 -0.8125 "/></g></g></g><g fill="#ffffff" fill-opacity="1"><g transform="translate(67.970864, 83.97215)"><g><path d="M 2.828125 0.171875 C 2.335938 0.171875 1.867188 0.078125 1.421875 -0.109375 C 0.984375 -0.304688 0.625 -0.582031 0.34375 -0.9375 L 1.203125 -1.671875 C 1.367188 -1.421875 1.601562 -1.210938 1.90625 -1.046875 C 2.207031 -0.890625 2.519531 -0.8125 2.84375 -0.8125 C 3.1875 -0.8125 3.472656 -0.882812 3.703125 -1.03125 C 3.941406 -1.175781 4.0625 -1.40625 4.0625 -1.71875 C 4.0625 -1.894531 4.003906 -2.046875 3.890625 -2.171875 C 3.773438 -2.296875 3.601562 -2.394531 3.375 -2.46875 C 3.15625 -2.550781 2.847656 -2.644531 2.453125 -2.75 C 2.117188 -2.820312 1.820312 -2.914062 1.5625 -3.03125 C 1.3125 -3.15625 1.097656 -3.332031 0.921875 -3.5625 C 0.742188 -3.789062 0.65625 -4.085938 0.65625 -4.453125 C 0.65625 -4.867188 0.765625 -5.21875 0.984375 -5.5 C 1.203125 -5.78125 1.488281 -5.988281 1.84375 -6.125 C 2.195312 -6.257812 2.578125 -6.328125 2.984375 -6.328125 C 3.441406 -6.328125 3.875 -6.238281 4.28125 -6.0625 C 4.695312 -5.882812 5.007812 -5.632812 5.21875 -5.3125 L 4.375 -4.609375 C 4.238281 -4.828125 4.039062 -5.007812 3.78125 -5.15625 C 3.53125 -5.300781 3.253906 -5.375 2.953125 -5.375 C 2.640625 -5.375 2.367188 -5.304688 2.140625 -5.171875 C 1.921875 -5.035156 1.8125 -4.832031 1.8125 -4.5625 C 1.8125 -4.382812 1.859375 -4.242188 1.953125 -4.140625 C 2.054688 -4.035156 2.207031 -3.941406 2.40625 -3.859375 C 2.601562 -3.785156 2.875 -3.710938 3.21875 -3.640625 C 3.863281 -3.492188 4.367188 -3.28125 4.734375 -3 C 5.097656 -2.71875 5.28125 -2.320312 5.28125 -1.8125 C 5.28125 -1.351562 5.164062 -0.972656 4.9375 -0.671875 C 4.71875 -0.378906 4.421875 -0.164062 4.046875 -0.03125 C 3.671875 0.101562 3.265625 0.171875 2.828125 0.171875 Z M 2.828125 0.171875 "/></g></g></g></svg>